<?xml version="1.0" encoding="utf-8"?>
<!-- Generator: Adobe Illustrator 16.0.3, SVG Export Plug-In . SVG Version: 6.00 Build 0)  -->
<!DOCTYPE svg PUBLIC "-//W3C//DTD SVG 1.1//EN" "http://www.w3.org/Graphics/SVG/1.1/DTD/svg11.dtd">
<svg version="1.1" id="Layer_1" xmlns="http://www.w3.org/2000/svg" xmlns:xlink="http://www.w3.org/1999/xlink" x="0px" y="0px"
	 viewBox="0 0 75 75" enable-background="new 0 0 75 75" xml:space="preserve">
<g id="layer1" transform="translate(-1.0386041,1.0609324)">
	<path id="path4" fill="#FFFFFF" d="M53.765-0.408c1.31-0.057,2.582-0.075,3.908-0.075c2.783,0.32,5.567,1.167,8.074,2.483
		c3.375,2.277,6.157,5.382,8.149,9.033c1.236,2.352,1.492,5.061,0.7,7.564c-7.853,25.48-27.34,45.446-52.246,53.629
		c-2.838,0.903-5.972,0.603-8.534-0.922c-1.9-1.146-3.688-2.409-5.218-3.896C5.042,63.891,2.755,59.375,1.87,54.48
		c-0.128-0.582,0.092-1.26,0.536-1.712c0.221-0.224,0.571-0.394,0.884-0.45l18.896-4.837c0.958-0.263,1.973,0.32,2.249,1.318
		l1.715,6.002c0.092,0.356,0.277,0.62,0.497,0.845c0.756,0.773,1.937,0.736,2.691-0.036l0,0l28.336-28.921
		c0.756-0.772,0.792-1.976,0.037-2.748c-0.257-0.264-0.609-0.432-0.96-0.528l-3.592-0.695c-0.923-0.226-1.532-1.035-1.532-1.938
		L52.015,1.49c0.038-0.488,0.223-0.939,0.573-1.297C52.898-0.126,53.342-0.314,53.765-0.408z"/>
</g>
</svg>
